<svg xmlns="http://www.w3.org/2000/svg" width="16.742" height="11.646" viewBox="0 0 16.742 11.646">
  <path id="_290142_business_card_cash_credit_money_icon_1_" data-name="290142_business_card_cash_credit_money_icon (1)" d="M16.286,19.646H2.456A1.456,1.456,0,0,1,1,18.191V9.456A1.456,1.456,0,0,1,2.456,8h13.83a1.456,1.456,0,0,1,1.456,1.456v8.735A1.456,1.456,0,0,1,16.286,19.646ZM1.728,12.731H17.014V11.276H1.728ZM17.014,9.456a.728.728,0,0,0-.728-.728H2.456a.728.728,0,0,0-.728.728v1.092H17.014Zm0,4H1.728v4.731a.728.728,0,0,0,.728.728h13.83a.728.728,0,0,0,.728-.728ZM10.1,15.643H8.643a.364.364,0,0,1,0-.728H10.1a.364.364,0,1,1,0,.728Zm-3.276,0H3.548a.364.364,0,0,1,0-.728H6.823a.364.364,0,0,1,0,.728ZM3.548,16.735H5.731a.364.364,0,0,1,0,.728H3.548a.364.364,0,0,1,0-.728Z" transform="translate(-1 -8)" fill="#fba829" fill-rule="evenodd"/>
</svg>
