<svg xmlns="http://www.w3.org/2000/svg" xmlns:xlink="http://www.w3.org/1999/xlink" width="26" height="26" viewBox="0 0 26 26">
  <defs>
    <clipPath id="clip-path">
      <circle id="Ellipse_153" data-name="Ellipse 153" cx="13" cy="13" r="13"/>
    </clipPath>
    <clipPath id="clip-path-2">
      <path id="Path_319" data-name="Path 319" d="M32.517,18.429l4.905,13.2a.815.815,0,0,0,1.045.479l5.775-2.145a.815.815,0,0,0,.479-1.045l-4.905-13.2a.815.815,0,0,0-1.045-.479L33,17.385A.815.815,0,0,0,32.517,18.429Z" transform="translate(-32.466 -15.188)"/>
    </clipPath>
    <clipPath id="clip-path-3">
      <path id="Path_327" data-name="Path 327" d="M95.7,69.461H94.677v3.421H95.7a.428.428,0,0,0,.428-.428V69.889A.427.427,0,0,0,95.7,69.461Z" transform="translate(-94.677 -69.461)"/>
    </clipPath>
    <clipPath id="clip-path-4">
      <path id="Path_329" data-name="Path 329" d="M77.949,72.882H73.993a1.625,1.625,0,0,1-1.625-1.625v-.171a1.625,1.625,0,0,1,1.625-1.625h3.956a.406.406,0,0,1,.406.406v2.609A.406.406,0,0,1,77.949,72.882Z" transform="translate(-72.368 -69.461)"/>
    </clipPath>
  </defs>
  <g id="_669953_purse_dollars_finance_money_pay_icon" data-name="669953_purse_dollars_finance_money_pay_icon" transform="translate(-107.546 -9.546)">
    <g id="Layer_2" transform="translate(107.546 9.546)">
      <g id="Group_520" data-name="Group 520">
        <circle id="Ellipse_152" data-name="Ellipse 152" cx="13" cy="13" r="13" fill="#ebf0f1"/>
        <g id="Group_511" data-name="Group 511">
          <g id="Group_510" data-name="Group 510" clip-path="url(#clip-path)">
            <path id="Path_313" data-name="Path 313" d="M29.315,34.151l4.913,4.888H49.36V26.559L42.352,19.53l-.423-.177L39.989,17.4l-1.462.358-1.412-1.4-4.491,8.708Z" transform="translate(-23.36 -13.039)" fill="#d9e1e2"/>
          </g>
        </g>
        <g id="Group_514" data-name="Group 514" transform="translate(6.025 3.085)">
          <path id="Path_314" data-name="Path 314" d="M35.581,17.82,29.735,30.634a.815.815,0,0,0,.4,1.076l5.6,2.557a.815.815,0,0,0,1.076-.4l5.846-12.814a.815.815,0,0,0-.4-1.076l-5.6-2.557A.815.815,0,0,0,35.581,17.82Z" transform="translate(-29.662 -16.907)" fill="#016938"/>
          <path id="Path_315" data-name="Path 315" d="M41.457,19.057l-.751,14.064a.815.815,0,0,0,.768.855l6.151.328a.815.815,0,0,0,.855-.768l.751-14.064a.815.815,0,0,0-.768-.855l-6.151-.328A.815.815,0,0,0,41.457,19.057Z" transform="translate(-38.461 -17.659)" fill="#027b38"/>
          <path id="Path_316" data-name="Path 316" d="M32.517,18.429l4.905,13.2a.815.815,0,0,0,1.045.479l5.775-2.145a.815.815,0,0,0,.479-1.045l-4.905-13.2a.815.815,0,0,0-1.045-.479L33,17.385A.815.815,0,0,0,32.517,18.429Z" transform="translate(-31.896 -15.188)" fill="#89bc49"/>
          <path id="Path_317" data-name="Path 317" d="M32.517,18.429l4.905,13.2a.815.815,0,0,0,1.045.479l5.775-2.145a.815.815,0,0,0,.479-1.045l-4.905-13.2a.815.815,0,0,0-1.045-.479L33,17.385A.815.815,0,0,0,32.517,18.429Z" transform="translate(-31.896 -15.188)" fill="#92c142"/>
          <g id="Group_513" data-name="Group 513" transform="translate(0.57)">
            <g id="Group_512" data-name="Group 512" clip-path="url(#clip-path-2)">
              <path id="Path_318" data-name="Path 318" d="M32.591,14.913c.023.05.046.1.066.153h0l3.128-1.162h0c-.02-.053-.035-.106-.05-.159l2.283-.848.828,2.229c-.058.028-.117.055-.178.079L42.59,25.763c.062-.022.124-.04.187-.057l.944,2.542-2.236.831a2.238,2.238,0,0,1-.229-.449h0l-3.128,1.162h0a2.218,2.218,0,0,1,.119.49l-2.163.8-.947-2.548c.043-.019.086-.039.131-.056L31.347,17.927c-.045.017-.09.029-.135.043l-.83-2.235Zm-.632,2.666,4,10.766a2.228,2.228,0,0,1,1.821.834l3.339-1.24a2.229,2.229,0,0,1,.855-1.839L37.981,15.352a2.229,2.229,0,0,1-1.848-.834l-3.339,1.24A2.227,2.227,0,0,1,31.959,17.579Z" transform="translate(-30.805 -13.362)" fill="#3c9c36"/>
            </g>
          </g>
          <ellipse id="Ellipse_154" data-name="Ellipse 154" cx="1.877" cy="2.398" rx="1.877" ry="2.398" transform="translate(5.127 11.081) rotate(-110.383)" fill="#3c9c36"/>
          <path id="Path_320" data-name="Path 320" d="M48.684,29.311l.507,1.366a.931.931,0,0,0,1.2.548l.092-.034a.931.931,0,0,0,.548-1.2l-.507-1.366a.931.931,0,0,0-1.2-.548l-.092.034A.931.931,0,0,0,48.684,29.311Z" transform="translate(-44.773 -25.415)" fill="#3c9c36"/>
          <path id="Path_321" data-name="Path 321" d="M64.273,71.27l.507,1.366a.931.931,0,0,0,1.2.548l.092-.034a.931.931,0,0,0,.548-1.2l-.507-1.366a.931.931,0,0,0-1.2-.548l-.092.034A.931.931,0,0,0,64.273,71.27Z" transform="translate(-57.196 -58.851)" fill="#3c9c36"/>
        </g>
        <path id="Path_322" data-name="Path 322" d="M41.885,61.631H28.971a.813.813,0,0,1-.812-.812V51.326a.813.813,0,0,1,.813-.812H41.885a.813.813,0,0,1,.813.813v9.493A.813.813,0,0,1,41.885,61.631Z" transform="translate(-22.438 -40.253)" fill="#f49c0b"/>
        <path id="Path_323" data-name="Path 323" d="M78.6,50.513h-.641a.855.855,0,0,1,.855.855v6.19l-4.529-.4,4.248,4.248a.849.849,0,0,1-.574.225H78.6a.855.855,0,0,0,.855-.855V51.368A.856.856,0,0,0,78.6,50.513Z" transform="translate(-59.193 -40.253)" fill="#e48316" opacity="0.67"/>
        <path id="Path_324" data-name="Path 324" d="M44.748,64.078h-.429a.107.107,0,0,1,0-.214h.429a.107.107,0,1,1,0,.214Zm-1.5,0h-.429a.107.107,0,1,1,0-.214h.429a.107.107,0,1,1,0,.214Zm-1.5,0h-.429a.107.107,0,0,1,0-.214h.429a.107.107,0,0,1,0,.214Zm-1.5,0h-.429a.107.107,0,0,1,0-.214h.429a.107.107,0,0,1,0,.214Zm-1.5,0h-.43a.107.107,0,0,1,0-.214h.43a.107.107,0,0,1,0,.214Zm-1.5,0h-.429a.107.107,0,1,1,0-.214h.429a.107.107,0,0,1,0,.214Zm-1.5,0H35.3a.107.107,0,0,1,0-.214h.429a.107.107,0,1,1,0,.214Zm-1.5,0h-.006a.321.321,0,0,1-.321-.321v-.093a.107.107,0,1,1,.214,0v.093a.107.107,0,0,0,.107.107.109.109,0,0,1,.11.107A.1.1,0,0,1,34.229,64.078Zm11.591,0a.107.107,0,0,1-.016-.212.108.108,0,0,0,.09-.106v-.127a.107.107,0,0,1,.214,0v.127a.319.319,0,0,1-.271.317ZM34.01,62.7a.107.107,0,0,1-.107-.107v-.43a.107.107,0,0,1,.214,0v.43A.107.107,0,0,1,34.01,62.7ZM46,62.664a.107.107,0,0,1-.107-.107v-.43a.107.107,0,0,1,.214,0v.43A.107.107,0,0,1,46,62.664ZM34.01,61.195a.107.107,0,0,1-.107-.107v-.429a.107.107,0,0,1,.214,0v.429A.107.107,0,0,1,34.01,61.195Zm0-1.5a.107.107,0,0,1-.107-.107v-.429a.107.107,0,0,1,.214,0v.429A.107.107,0,0,1,34.01,59.692Zm0-1.5a.107.107,0,0,1-.107-.107v-.429a.107.107,0,0,1,.214,0v.429A.107.107,0,0,1,34.01,58.19Zm0-1.5a.107.107,0,0,1-.107-.107v-.429a.107.107,0,0,1,.214,0v.429A.107.107,0,0,1,34.01,56.687ZM46,56.654a.107.107,0,0,1-.107-.107v-.429a.107.107,0,0,1,.214,0v.429A.107.107,0,0,1,46,56.654ZM34.01,55.184a.107.107,0,0,1-.107-.107v-.124a.323.323,0,0,1,.275-.318.108.108,0,0,1,.121.091.107.107,0,0,1-.091.121.107.107,0,0,0-.092.106v.124A.107.107,0,0,1,34.01,55.184ZM46,55.151a.107.107,0,0,1-.107-.107v-.091a.107.107,0,0,0-.107-.107.108.108,0,0,1-.108-.107.106.106,0,0,1,.106-.107h0a.321.321,0,0,1,.321.321v.091A.107.107,0,0,1,46,55.151Zm-1.29-.3h-.429a.107.107,0,1,1,0-.214h.429a.107.107,0,1,1,0,.214Zm-1.5,0H42.78a.107.107,0,0,1,0-.214h.429a.107.107,0,0,1,0,.214Zm-1.5,0h-.429a.107.107,0,0,1,0-.214h.429a.107.107,0,1,1,0,.214Zm-1.5,0h-.43a.107.107,0,0,1,0-.214h.43a.107.107,0,1,1,0,.214Zm-1.5,0h-.429a.107.107,0,1,1,0-.214H38.7a.107.107,0,0,1,0,.214Zm-1.5,0h-.429a.107.107,0,1,1,0-.214H37.2a.107.107,0,1,1,0,.214Zm-1.5,0h-.43a.107.107,0,1,1,0-.214h.43a.107.107,0,0,1,0,.214Z" transform="translate(-27.016 -43.536)" fill="#fbca76"/>
        <path id="Path_325" data-name="Path 325" d="M28.8,60.776V51.368a.855.855,0,0,1,.855-.855h-.641a.855.855,0,0,0-.855.855v9.408a.855.855,0,0,0,.855.855h.641A.856.856,0,0,1,28.8,60.776Z" transform="translate(-22.438 -40.253)" fill="#f9c187" opacity="0.5"/>
        <path id="Path_326" data-name="Path 326" d="M77.949,72.882H73.993a1.625,1.625,0,0,1-1.625-1.625v-.171a1.625,1.625,0,0,1,1.625-1.625h3.956a.406.406,0,0,1,.406.406v2.609A.406.406,0,0,1,77.949,72.882Z" transform="translate(-57.668 -55.352)" fill="#d17311"/>
        <g id="Group_516" data-name="Group 516" transform="translate(19.231 14.109)">
          <g id="Group_515" data-name="Group 515" clip-path="url(#clip-path-3)">
            <rect id="Rectangle_126" data-name="Rectangle 126" width="0.641" height="5.215" transform="translate(0.814 -0.778)" fill="#ca6213"/>
          </g>
        </g>
        <g id="Group_518" data-name="Group 518" transform="translate(14.7 14.109)">
          <g id="Group_517" data-name="Group 517" clip-path="url(#clip-path-4)">
            <path id="Path_328" data-name="Path 328" d="M77.794,76.368,79.049,77.6h2.207l-2.337-2.337Z" transform="translate(-76.692 -74.087)" fill="#c56415"/>
          </g>
        </g>
        <g id="Group_519" data-name="Group 519" transform="translate(15.555 15.03)">
          <circle id="Ellipse_155" data-name="Ellipse 155" cx="0.79" cy="0.79" r="0.79" fill="#d8b997"/>
          <path id="Path_330" data-name="Path 330" d="M77.007,74.829a1.278,1.278,0,0,1,.247-.778.786.786,0,0,0,0,1.556A1.278,1.278,0,0,1,77.007,74.829Z" transform="translate(-76.579 -74.039)" fill="#f1d2ae"/>
          <path id="Path_331" data-name="Path 331" d="M81.279,74.829a1.278,1.278,0,0,1-.247.778.786.786,0,0,0,0-1.556A1.277,1.277,0,0,1,81.279,74.829Z" transform="translate(-80.127 -74.039)" fill="#c8a57e"/>
        </g>
      </g>
    </g>
  </g>
</svg>
