<svg xmlns="http://www.w3.org/2000/svg" width="14.999" height="14.999" viewBox="0 0 14.999 14.999">
  <g id="_8324197_ui_essential_app_support_help_icon" data-name="8324197_ui_essential_app_support_help_icon" transform="translate(-0.5 -0.5)">
    <path id="Path_395" data-name="Path 395" d="M3.8,19.666H3.333A2.333,2.333,0,0,1,1,17.333H1A2.333,2.333,0,0,1,3.333,15H3.8Z" transform="translate(0 -7.467)" fill="none" stroke="#fba829" stroke-linejoin="round" stroke-miterlimit="10" stroke-width="1"/>
    <path id="Path_396" data-name="Path 396" d="M25.467,19.666H25V15h.467A2.333,2.333,0,0,1,27.8,17.333h0A2.333,2.333,0,0,1,25.467,19.666Z" transform="translate(-12.801 -7.467)" fill="none" stroke="#fba829" stroke-linejoin="round" stroke-miterlimit="10" stroke-width="1"/>
    <path id="Path_397" data-name="Path 397" d="M5,7.533v-1.4A5.133,5.133,0,0,1,10.133,1h0a5.133,5.133,0,0,1,5.133,5.133v1.4" transform="translate(-2.133)" fill="none" stroke="#fba829" stroke-linejoin="round" stroke-miterlimit="10" stroke-width="1"/>
    <path id="Path_398" data-name="Path 398" d="M24.333,25v1.867a.933.933,0,0,1-.933.933H22" transform="translate(-11.201 -12.801)" fill="none" stroke="#fba829" stroke-linejoin="round" stroke-miterlimit="10" stroke-width="1"/>
    <line id="Line_96" data-name="Line 96" x2="0.75" transform="translate(8.749 14.749)" fill="none" stroke="#fba829" stroke-linejoin="round" stroke-miterlimit="10" stroke-width="1"/>
  </g>
</svg>
