<svg xmlns="http://www.w3.org/2000/svg" width="14.292" height="17.039" viewBox="0 0 14.292 17.039">
  <g id="Order_confirmation" transform="translate(-64.969 -27.91)">
    <path id="Path_399" data-name="Path 399" d="M70.966,43.539l.075-.675H65.9a.367.367,0,0,1-.367-.367V30.122a.367.367,0,0,1,.367-.367H73.65a.367.367,0,0,1,.367.367v5.82a2.049,2.049,0,0,1,.56-.336v-6.5a1.2,1.2,0,0,0-1.2-1.2H66.17a1.2,1.2,0,0,0-1.2,1.2V43.528a1.2,1.2,0,0,0,1.2,1.2h5.123A1.669,1.669,0,0,1,70.966,43.539Zm-.353.447H68.933v-.441h1.681Z" fill="#fba829"/>
    <path id="Path_400" data-name="Path 400" d="M100.3,131.372a.878.878,0,1,1-.875-.948v-.4a1.282,1.282,0,1,0,1.28,1.352Z" transform="translate(-31.955 -98.36)" fill="#fba829"/>
    <path id="Path_401" data-name="Path 401" d="M114.85,138.557l-.325.3.484.53a.22.22,0,0,0,.161.072h0a.22.22,0,0,0,.161-.07l1.028-1.1-.321-.3-.865.922Z" transform="translate(-47.736 -106.036)" fill="#fba829"/>
    <path id="Path_402" data-name="Path 402" d="M100.3,226.455a.878.878,0,1,1-.875-.948v-.4a1.282,1.282,0,1,0,1.28,1.352Z" transform="translate(-31.955 -189.951)" fill="#fba829"/>
    <path id="Path_403" data-name="Path 403" d="M114.85,233.64l-.325.3.484.53a.22.22,0,0,0,.161.072h0a.22.22,0,0,0,.161-.07l1.028-1.1-.321-.3-.865.922Z" transform="translate(-47.736 -197.627)" fill="#fba829"/>
    <path id="Path_404" data-name="Path 404" d="M98.139,321.471a1.282,1.282,0,0,0,2.561.071h-.4a.878.878,0,1,1-.875-.948v-.4A1.283,1.283,0,0,0,98.139,321.471Z" transform="translate(-31.952 -281.545)" fill="#fba829"/>
    <path id="Path_405" data-name="Path 405" d="M114.85,328.727l-.325.3.484.53a.22.22,0,0,0,.161.072h0a.22.22,0,0,0,.161-.07l1.028-1.1-.321-.3-.865.922Z" transform="translate(-47.736 -289.222)" fill="#fba829"/>
    <rect id="Rectangle_550" data-name="Rectangle 550" width="2.669" height="0.441" transform="translate(69.664 32.279)" fill="#fba829"/>
    <rect id="Rectangle_551" data-name="Rectangle 551" width="1.858" height="0.441" transform="translate(69.664 33.164)" fill="#fba829"/>
    <rect id="Rectangle_552" data-name="Rectangle 552" width="1.858" height="0.441" transform="translate(69.664 35.698)" fill="#fba829"/>
    <rect id="Rectangle_553" data-name="Rectangle 553" width="2.656" height="0.441" transform="translate(69.664 36.583)" fill="#fba829"/>
    <path id="Path_406" data-name="Path 406" d="M247.832,253.2l-.518-4.659a.752.752,0,0,0-.749-.67h-1.03v-.711a1.629,1.629,0,0,0-1.6-1.627,1.651,1.651,0,0,0-1.656,1.656v.682h-1.03a.752.752,0,0,0-.749.67l-.52,4.677a1.226,1.226,0,0,0,1.218,1.362h5.4a1.242,1.242,0,0,0,1.235-1.38Zm-5.11-6.04a1.188,1.188,0,0,1,1.166-1.187,1.206,1.206,0,0,1,1.207,1.21v.687h-2.373Zm4.473,6.711a.8.8,0,0,1-.6.267h-5.4a.785.785,0,0,1-.78-.872l.52-4.677a.312.312,0,0,1,.311-.278h1.03v.874h.441v-.874H245.1v.874h.441v-.874h1.03a.312.312,0,0,1,.311.278l.518,4.659A.8.8,0,0,1,247.2,253.876Z" transform="translate(-168.579 -209.635)" fill="#fba829"/>
  </g>
</svg>
