<svg xmlns="http://www.w3.org/2000/svg" width="21" height="21" viewBox="0 0 21 21">
  <path id="XMLID_328_" d="M22.92,9.89A1.457,1.457,0,0,0,21.758,8.9l-5.481-.821L13.81,2.841a1.441,1.441,0,0,0-2.62,0L8.758,8.061,3.24,8.9a1.458,1.458,0,0,0-1.162.989,1.5,1.5,0,0,0,.349,1.534l3.991,4.084-.943,5.757a1.488,1.488,0,0,0,.608,1.469,1.417,1.417,0,0,0,1.515.085L12.465,20.1,17.4,22.821a1.42,1.42,0,0,0,1.515-.085,1.487,1.487,0,0,0,.608-1.469L18.579,15.5l3.992-4.077A1.5,1.5,0,0,0,22.92,9.89Z" transform="translate(-1.999 -2)" fill="#cfcfcf"/>
</svg>
