<svg xmlns="http://www.w3.org/2000/svg" width="44.297" height="28" viewBox="0 0 44.297 28">
  <g id="_6619719_and_delivery_ecommerce_fast_shopping_icon" data-name="6619719_and_delivery_ecommerce_fast_shopping_icon" transform="translate(0 -8)">
    <circle id="Ellipse_151" data-name="Ellipse 151" cx="5.5" cy="5.5" r="5.5" transform="translate(8.149 25)" fill="#fe0"/>
    <g id="Group_508" data-name="Group 508" transform="translate(31.839 25.996)">
      <path id="Path_310" data-name="Path 310" d="M27.153,29.306a4.153,4.153,0,1,1,4.153-4.153A4.079,4.079,0,0,1,27.153,29.306Z" transform="translate(-23 -21)"/>
    </g>
    <g id="Group_509" data-name="Group 509" transform="translate(9.69 25.996)">
      <path id="Path_311" data-name="Path 311" d="M11.153,29.306a4.153,4.153,0,0,1,0-8.306,4.153,4.153,0,0,1,0,8.306Z" transform="translate(-7 -21)"/>
    </g>
    <path id="Path_312" data-name="Path 312" d="M44.02,21.012l-5.537-6.921a1.259,1.259,0,0,0-1.107-.554H30.454V9.384A1.308,1.308,0,0,0,29.07,8H6.921A1.308,1.308,0,0,0,5.537,9.384v1.384H6.921a1.308,1.308,0,0,1,1.384,1.384,1.308,1.308,0,0,1-1.384,1.384H4.153a1.308,1.308,0,0,0-1.384,1.384,1.308,1.308,0,0,0,1.384,1.384H8.306a1.384,1.384,0,1,1,0,2.769H1.384a1.384,1.384,0,1,0,0,2.769H5.537v8.306a1.308,1.308,0,0,0,1.384,1.384H7.06a4.709,4.709,0,0,1-.138-1.384,6.921,6.921,0,1,1,13.843,0,4.709,4.709,0,0,1-.138,1.384h8.583a4.709,4.709,0,0,1-.138-1.384,6.921,6.921,0,1,1,13.843,0,4.709,4.709,0,0,1-.138,1.384h.138A1.308,1.308,0,0,0,44.3,30.149V21.843A1.968,1.968,0,0,0,44.02,21.012Z"/>
  </g>
</svg>
