<svg xmlns="http://www.w3.org/2000/svg" width="17.559" height="11.854" viewBox="0 0 17.559 11.854">
  <path id="_7340518_e-commerce_online_shopping_ui_shipping_icon_1_" data-name="7340518_e-commerce_online_shopping_ui_shipping_icon (1)" d="M20.334,14.512l-.492-.878a1.677,1.677,0,0,0-1.466-.878H14.535A1.756,1.756,0,0,0,12.779,11H5.756A1.756,1.756,0,0,0,4,12.756V19.34A1.756,1.756,0,0,0,5.756,21.1H5.8a2.195,2.195,0,0,0,4.3,0h5.355a2.195,2.195,0,0,0,4.3,0h.123a1.677,1.677,0,0,0,1.677-1.677V17.146a1.637,1.637,0,0,0-.211-.812Zm-.531.878.483.878.246.439H17.608a.439.439,0,0,1-.439-.439v-.439a.439.439,0,0,1,.439-.439ZM7.951,21.974A1.317,1.317,0,0,1,6.66,20.9a1.1,1.1,0,0,1-.026-.241,1.317,1.317,0,1,1,2.634,0,1.1,1.1,0,0,1-.026.241A1.317,1.317,0,0,1,7.951,21.974ZM10.1,20.218h0v-.04A2.265,2.265,0,0,0,10,19.832l-.07-.14a1.611,1.611,0,0,0-.114-.211l-.105-.14a1.664,1.664,0,0,0-.14-.167,1.163,1.163,0,0,0-.127-.127L9.268,18.9a1.756,1.756,0,0,0-.149-.1l-.2-.11-.154-.07a2.085,2.085,0,0,0-.25-.079l-.123-.035a2,2,0,0,0-.834,0l-.136.035a2.085,2.085,0,0,0-.25.079l-.154.07-.2.11a1.755,1.755,0,0,0-.18.1l-.167.14a1.163,1.163,0,0,0-.127.127,1.664,1.664,0,0,0-.145.171c-.035.048-.07.092-.105.145a1.611,1.611,0,0,0-.114.211c0,.048-.048.092-.07.14a2.265,2.265,0,0,0-.105.347v.04H5.756a.878.878,0,0,1-.878-.878V12.756a.878.878,0,0,1,.878-.878h7.023a.878.878,0,0,1,.878.878v3.951H7.073a.439.439,0,1,0,0,.878h6.584v2.634Zm7.506,1.756A1.317,1.317,0,0,1,16.317,20.9a1.1,1.1,0,0,1-.026-.241,1.317,1.317,0,0,1,2.634,0,1.1,1.1,0,0,1-.026.241A1.317,1.317,0,0,1,17.608,21.974Zm3.073-2.555a.8.8,0,0,1-.8.8h-.123v-.04a2.265,2.265,0,0,0-.105-.347l-.07-.14a1.611,1.611,0,0,0-.114-.211c-.035-.053-.07-.1-.105-.145a1.664,1.664,0,0,0-.14-.167,1.163,1.163,0,0,0-.127-.127l-.171-.14a1.755,1.755,0,0,0-.149-.1l-.2-.11-.154-.07a2.085,2.085,0,0,0-.25-.079l-.123-.035a2,2,0,0,0-.834,0l-.136.035a2.085,2.085,0,0,0-.25.079l-.154.07-.2.11a1.755,1.755,0,0,0-.18.1l-.167.14a1.163,1.163,0,0,0-.127.127,1.664,1.664,0,0,0-.145.171l-.105.145a1.611,1.611,0,0,0-.114.211l-.07.14a2.265,2.265,0,0,0-.105.347v.04h-.922V13.634h3.841a.8.8,0,0,1,.7.413l.259.465H17.608a1.317,1.317,0,0,0-1.317,1.317v.439a1.317,1.317,0,0,0,1.317,1.317h3.073Z" transform="translate(-4 -11)" fill="#fba829"/>
</svg>
